<?xml version="1.0" encoding="utf-8"?>
<!-- Generator: Adobe Illustrator 23.0.1, SVG Export Plug-In . SVG Version: 6.00 Build 0)  -->
<svg version="1.1" id="Capa_1" xmlns="http://www.w3.org/2000/svg" xmlns:xlink="http://www.w3.org/1999/xlink" x="0px" y="0px"
	 viewBox="0 0 32 32" style="enable-background:new 0 0 32 32;" xml:space="preserve">
<style type="text/css">
	.st0{fill:#ff1493;}
</style>
<g>
	<path class="st0" d="M31.4,16.8c-0.3-0.4-0.8-0.9-1.4-1.6l1.2-2.1c0.3-0.5,0.1-1.1-0.4-1.3c-0.5-0.3-1.1-0.1-1.3,0.4l-0.9,1.7
		c-0.7-0.6-1.6-1.3-2.5-1.9l1.1-3c0.2-0.5-0.1-1.1-0.6-1.3s-1.1,0.1-1.3,0.6l-1.1,2.7c-0.9-0.4-1.8-0.8-2.8-1.1l0.7-3.6
		c0.1-0.5-0.2-1.1-0.8-1.2s-1.1,0.2-1.2,0.8l-0.7,3.5C18.7,9.2,17.9,9.1,17,9V4.9c0-0.5-0.4-1-1-1c-0.5,0-1,0.4-1,1V9
		c-0.9,0-1.8,0.2-2.6,0.3l-0.7-3.5c-0.1-0.5-0.6-0.9-1.1-0.8c-0.5,0.1-0.9,0.6-0.8,1.2l0.7,3.6c-1,0.3-1.9,0.7-2.8,1.1L6.8,8.2
		C6.6,7.7,6,7.5,5.5,7.6C5,7.8,4.8,8.4,4.9,8.9L6,11.8c-1,0.6-1.8,1.3-2.5,1.9l-0.9-1.6c-0.3-0.5-0.9-0.6-1.3-0.4
		C0.8,12,0.7,12.5,0.9,13l1.1,2.1c-0.6,0.7-1.1,1.2-1.4,1.6c-0.8,1.1-0.8,2.5,0,3.5C2,22.1,7.3,28,15.8,28.1c0.1,0,0.2,0,0.2,0
		c0.1,0,0.2,0,0.2,0c8.5-0.1,13.7-6,15.1-7.8C32.2,19.3,32.2,17.8,31.4,16.8z M2.2,19.1C2,18.8,2,18.3,2.2,18
		c0.8-1.1,2.9-3.4,6.1-5.2c-1.2,1.6-1.9,3.6-1.9,5.7c0,2.1,0.7,4.1,1.9,5.7C5.1,22.5,3,20.2,2.2,19.1z M16.3,26.2
		c-0.1,0-0.2,0-0.2,0c-0.1,0-0.2,0-0.2,0c-4.1-0.1-7.4-3.5-7.4-7.6s3.3-7.5,7.4-7.6c0.1,0,0.2,0,0.3,0c0.1,0,0.2,0,0.3,0
		c4.1,0.1,7.4,3.5,7.4,7.6S20.4,26,16.3,26.2z M29.9,19.1c-0.8,1.1-2.9,3.4-6.1,5.2c1.2-1.6,1.9-3.6,1.9-5.7c0-2.1-0.7-4.1-1.9-5.7
		c3.2,1.7,5.3,4.1,6.1,5.2C30.1,18.3,30.1,18.8,29.9,19.1z"/>
	<path class="st0" d="M16,13.8c-0.6,0-1.2,0.1-1.8,0.4c0.6,0.3,0.9,0.9,0.9,1.6c0,1.1-0.9,1.8-1.8,1.8c-0.7,0-1.3-0.4-1.6-0.9
		c-0.2,0.6-0.4,1.2-0.4,1.8c0,2.6,2.1,4.7,4.7,4.7c2.6,0,4.7-2.1,4.7-4.7C20.8,15.9,18.6,13.8,16,13.8z"/>
</g>
</svg>
