<?xml version="1.0" encoding="utf-8"?>
<!-- Generator: Adobe Illustrator 23.0.1, SVG Export Plug-In . SVG Version: 6.00 Build 0)  -->
<svg version="1.1" id="Capa_1" xmlns="http://www.w3.org/2000/svg" xmlns:xlink="http://www.w3.org/1999/xlink" x="0px" y="0px"
	 viewBox="0 0 100 100" style="enable-background:new 0 0 100 100;" xml:space="preserve">
<g>
	<path fill="white" d="M89.5,51.9c-0.8-0.9-2-2.4-3.5-4l3-5.5c0.7-1.2,0.2-2.8-1-3.4c-1.2-0.7-2.8-0.2-3.4,1l-2.3,4.3c-1.9-1.6-4-3.3-6.5-4.9
		l2.9-7.6c0.5-1.3-0.2-2.8-1.5-3.3c-1.3-0.5-2.8,0.2-3.3,1.5l-2.7,6.9c-2.2-1.1-4.6-2.1-7.1-2.8l1.9-9.1c0.3-1.4-0.6-2.7-2-3
		c-1.4-0.3-2.7,0.6-3,2l-1.9,9c-2.1-0.4-4.2-0.7-6.5-0.9V21.5c0-1.4-1.1-2.5-2.5-2.5c-1.4,0-2.5,1.1-2.5,2.5v10.4
		C45.3,32,43,32.3,41,32.7l-1.8-8.9c-0.3-1.4-1.6-2.2-2.9-2c-1.4,0.3-2.2,1.6-2,3l1.9,9.1c-2.5,0.8-4.9,1.7-7.1,2.8L26.4,30
		c-0.5-1.3-2-1.9-3.3-1.5c-1.3,0.5-1.9,2-1.5,3.3l2.9,7.5c-2.5,1.6-4.7,3.3-6.5,4.8l-2.2-4.2c-0.7-1.2-2.2-1.6-3.4-1
		c-1.2,0.7-1.6,2.2-1,3.4l2.9,5.3c-1.6,1.7-2.9,3.2-3.7,4.2c-2.1,2.7-2.1,6.4,0,9c3.6,4.7,17,19.8,38.8,20.1c0.2,0,0.4,0,0.6,0
		c0.2,0,0.4,0,0.6,0c21.8-0.3,35.2-15.4,38.8-20.1C91.5,58.3,91.5,54.6,89.5,51.9z M14.7,57.8C14,57,14,55.8,14.7,55
		c2.1-2.8,7.4-8.8,15.6-13.2c-3,4-4.8,9.1-4.8,14.6c0,5.4,1.8,10.5,4.8,14.6C22.1,66.6,16.8,60.6,14.7,57.8z M50.7,76
		c-0.2,0-0.4,0-0.6,0c-0.2,0-0.4,0-0.6,0c-10.5-0.3-19-9-19-19.6c0-10.6,8.4-19.2,18.9-19.6c0.3,0,0.5,0,0.7,0c0.2,0,0.5,0,0.7,0
		c10.5,0.3,18.9,9,18.9,19.6S61.2,75.7,50.7,76z M85.5,57.8c-2.1,2.8-7.4,8.8-15.6,13.2c3-4.1,4.8-9.1,4.8-14.6
		c0-5.4-1.8-10.5-4.8-14.6c8.2,4.4,13.5,10.4,15.6,13.2C86.1,55.9,86.1,57,85.5,57.8z"/>
	<path fill="white" d="M50.1,44.3c-1.6,0-3.2,0.3-4.7,0.9c1.5,0.8,2.4,2.4,2.4,4.1c0,2.7-2.2,4.7-4.7,4.7c-1.8,0-3.4-0.9-4.1-2.4
		c-0.6,1.5-0.9,3-0.9,4.7c0,6.6,5.4,12.1,12.1,12.1c6.6,0,12.1-5.4,12.1-12.1C62.2,49.7,56.7,44.3,50.1,44.3z"/>
</g>
</svg>
