<?xml version="1.0" encoding="utf-8"?>
<!-- Generator: Adobe Illustrator 23.0.1, SVG Export Plug-In . SVG Version: 6.00 Build 0)  -->
<svg version="1.1" id="Layer_1" xmlns="http://www.w3.org/2000/svg" xmlns:xlink="http://www.w3.org/1999/xlink" x="0px" y="0px"
	 viewBox="0 0 100 100" style="enable-background:new 0 0 100 100;" xml:space="preserve">
<style type="text/css">
	.st0{fill:#ff1493;}
</style>
<path class="st0" d="M88.2,3.4H11.9c-4.7,0-8.4,3.8-8.4,8.4v76.3c0,4.6,3.8,8.4,8.4,8.4h76.3c4.7,0,8.4-3.8,8.4-8.4V11.9
	C96.6,7.2,92.8,3.4,88.2,3.4z M32.3,83.8c0,1.4-1.1,2.5-2.5,2.5H19.4c-1.4,0-2.5-1.1-2.5-2.5V40.1c0-1.4,1.1-2.5,2.5-2.5h10.4
	c1.4,0,2.5,1.1,2.5,2.5C32.3,40.1,32.3,83.8,32.3,83.8z M24.6,33.5c-5.5,0-9.9-4.4-9.9-9.9s4.4-9.9,9.9-9.9s9.9,4.4,9.9,9.9
	S30.1,33.5,24.6,33.5z M86.8,84.1c0,1.2-1,2.2-2.2,2.2H73.4c-1.2,0-2.2-1-2.2-2.2V63.5c0-3.1,0.9-13.4-8-13.4
	c-6.9,0-8.3,7.1-8.6,10.3v23.7c0,1.2-1,2.2-2.2,2.2H41.5c-1.2,0-2.2-1-2.2-2.2V39.9c0-1.2,1-2.2,2.2-2.2h10.8c1.2,0,2.2,1,2.2,2.2
	v3.8c2.6-3.9,6.4-6.8,14.5-6.8c17.9,0,17.8,16.8,17.8,26L86.8,84.1L86.8,84.1z"/>
</svg>
