<?xml version="1.0" encoding="utf-8"?>
<!-- Generator: Adobe Illustrator 23.0.1, SVG Export Plug-In . SVG Version: 6.00 Build 0)  -->
<svg version="1.1" id="Capa_1" xmlns="http://www.w3.org/2000/svg" xmlns:xlink="http://www.w3.org/1999/xlink" x="0px" y="0px"
	 viewBox="0 0 1080 1080" style="enable-background:new 0 0 1080 1080;" xml:space="preserve">
<style type="text/css">
	.st0{enable-background:new    ;}
</style>
<g>
	<g class="st0">
		<path d="M276.3,410.7c3.5,0,6.2,0.3,8.3,0.8v25c-2.9-1.7-6.7-2.5-11.1-2.5c-11.3,0-19.6,4.8-25,14.4l-0.2,61.5h-25v-97.2h25.5
			l-1.3,11.3h0.2C255.2,415.1,264.7,410.7,276.3,410.7z"/>
		<path d="M314,397.9c-4.6,0-8.5-1.6-11.6-4.7c-3.1-3.1-4.7-7.1-4.7-11.8c0-4.6,1.6-8.4,4.7-11.4c3.1-3,7-4.6,11.6-4.7
			c4.6-0.1,8.5,1.4,11.8,4.5c3.3,3.1,4.9,7,4.9,11.6c0,4.9-1.6,8.8-4.8,11.9C322.7,396.3,318.7,397.9,314,397.9z M301.9,509.8v-97.2
			h25.2v97.2H301.9z"/>
		<path d="M399.5,511.8c-15.2,0-27.8-4.8-37.7-14.4c-9.9-9.6-14.8-21.6-14.8-35.9c0-14.5,5-26.5,15-36.2c10-9.7,22.5-14.5,37.5-14.5
			s26.5,3.5,34.6,10.6L423.5,442c-5.6-5.6-13.3-8.5-23.1-8.5c-7.9,0-14.6,2.6-20,7.9c-5.4,5.3-8.1,11.9-8.1,20
			c0,7.9,2.6,14.5,7.8,19.7s11.9,7.8,20.1,7.8c10.2,0,18.1-2.8,23.6-8.3l10,20.2C425.4,508.1,414,511.8,399.5,511.8z"/>
		<path d="M517,412.6h25.7v97.2H517l1.3-8.6h-0.8c-6.8,7-15.6,10.6-26.5,10.6c-13.7,0-25.4-4.8-35.1-14.5
			c-9.7-9.7-14.5-21.7-14.5-36c0-14.3,4.8-26.3,14.5-36c9.7-9.7,21.4-14.5,35.1-14.5c10.9,0,19.7,3.5,26.5,10.6h0.8L517,412.6z
			 M494,488.9c10.9,0,18.7-4.3,23.4-12.9v-29.6c-4.7-8.6-12.6-12.9-23.4-12.9c-8.1,0-14.6,2.6-19.6,7.7c-5,5.1-7.5,11.8-7.5,20
			c0,8.2,2.5,14.9,7.5,20C479.4,486.3,485.9,488.9,494,488.9z"/>
		<path d="M619.2,410.7c3.5,0,6.2,0.3,8.3,0.8v25c-2.9-1.7-6.7-2.5-11.1-2.5c-11.3,0-19.6,4.8-25,14.4l-0.2,61.5h-25v-97.2h25.5
			l-1.3,11.3h0.2C598,415.1,607.6,410.7,619.2,410.7z"/>
		<path d="M712.6,372.7H738v137.2h-25.7l1.3-8.6h-0.8c-6.8,7-15.6,10.6-26.5,10.6c-13.7,0-25.4-4.8-35.1-14.5
			c-9.7-9.7-14.5-21.7-14.5-36c0-14.3,4.8-26.3,14.5-36c9.7-9.7,21.4-14.5,35.1-14.5c11.1,0,19.9,3.5,26.3,10.6V372.7z M689.2,488.9
			c10.9,0,18.7-4.3,23.4-12.9v-29.6c-4.7-8.6-12.6-12.9-23.4-12.9c-8.1,0-14.6,2.6-19.6,7.7c-5,5.1-7.5,11.8-7.5,20
			c0,8.2,2.5,14.9,7.5,20C674.6,486.3,681.1,488.9,689.2,488.9z"/>
		<path d="M846.2,497.5c-10.1,9.5-22.4,14.3-37.2,14.3c-14.7,0-27.1-4.8-37.2-14.3c-10.1-9.5-15.1-21.6-15.1-36.2s5-26.7,15.1-36.2
			c10.1-9.5,22.4-14.3,37.2-14.3c14.7,0,27.1,4.8,37.2,14.3c10.1,9.5,15.1,21.6,15.1,36.2S856.3,487.9,846.2,497.5z M790,481.1
			c5.2,5.2,11.6,7.8,19,7.8c7.4,0,13.8-2.6,19-7.8c5.2-5.2,7.9-11.8,7.9-19.9c0-8.1-2.6-14.7-7.9-19.9c-5.3-5.2-11.6-7.8-19-7.8
			c-7.4,0-13.8,2.6-19,7.8c-5.3,5.2-7.9,11.8-7.9,19.9C782.1,469.3,784.8,475.9,790,481.1z"/>
	</g>
	<g class="st0">
		<path d="M292.4,581.8h25.2v84.2c0,14.6-4.6,26.5-13.9,35.7c-9.3,9.2-22.3,13.8-39,13.8c-17.5,0-31.8-4.1-43-12.4l10.2-19.8
			c3.1,2.3,5.9,4.1,8.3,5.4c2.4,1.3,5.6,2.6,9.7,3.8c4.1,1.2,8.4,1.8,13.1,1.8c9,0,16.3-2.2,21.7-6.7c5.4-4.5,8.1-10.1,8.1-17.1
			v-1.9c-6.3,6.9-14.9,10.4-25.8,10.4c-13.4,0-24.9-4.7-34.4-14.2c-9.5-9.5-14.2-21.3-14.2-35.3c0-14.1,4.7-25.8,14.2-35.3
			c9.5-9.5,20.9-14.2,34.4-14.2c10.7,0,19.3,3.5,26,10.4h0.8L292.4,581.8z M269.8,656.7c10.7,0,18.3-4.2,23-12.6v-29
			c-4.6-8.4-12.3-12.6-23-12.6c-7.9,0-14.3,2.5-19.2,7.5c-4.9,5-7.3,11.6-7.3,19.6c0,8,2.4,14.6,7.3,19.6
			C255.5,654.1,261.9,656.7,269.8,656.7z"/>
		<path d="M423.9,665c-9.9,9.4-22,14-36.5,14c-14.4,0-26.6-4.7-36.5-14c-9.9-9.4-14.8-21.2-14.8-35.5s4.9-26.2,14.8-35.5
			c9.9-9.4,22-14,36.5-14c14.4,0,26.6,4.7,36.5,14c9.9,9.4,14.8,21.2,14.8,35.5S433.7,655.7,423.9,665z M368.8,649
			c5.1,5.1,11.4,7.6,18.7,7.6c7.3,0,13.5-2.5,18.7-7.6c5.1-5.1,7.7-11.6,7.7-19.5s-2.6-14.4-7.7-19.5c-5.2-5.1-11.4-7.6-18.7-7.6
			c-7.3,0-13.5,2.5-18.7,7.6c-5.2,5.1-7.7,11.6-7.7,19.5S363.6,643.9,368.8,649z"/>
		<path d="M507.4,580c11.3,0,20.4,3.7,27.2,11.1c6.8,7.4,10.3,17.1,10.3,29.2v56.9h-24.7v-55.4c0-5.9-1.6-10.6-4.9-14.2
			c-3.3-3.6-7.6-5.4-13-5.4c-9.8,0-16.6,4.7-20.5,14.1v60.9h-24.7v-95.3h25.1l-1.3,8.9h0.6C488,583.5,496.6,580,507.4,580z
			 M515.2,566.8c-4.5,0-9.5-1.4-15-4.3c-5.5-2.9-9.6-4.3-12.3-4.3c-5.2,0-8.6,2.3-10.4,7l-15.3-12.2c4.9-10.4,12.6-15.6,23-15.6
			c4.9,0,10,1.4,15.3,4.3c5.3,2.9,9.2,4.3,11.7,4.3c4.6,0,8.1-2.3,10.4-7l15.1,12.2C532.7,561.6,525.2,566.8,515.2,566.8z"/>
		<path d="M564.2,570.9l-8.1-13.9l36.6-24.7l11.5,19.8L564.2,570.9z M567.5,677.2v-95.3h24.7v95.3H567.5z"/>
		<path d="M684.9,581.8h25.2v95.3h-25.2l1.3-8.5h-0.8c-6.7,6.9-15.3,10.4-26,10.4c-13.4,0-24.9-4.7-34.4-14.2
			c-9.5-9.5-14.2-21.3-14.2-35.3c0-14.1,4.7-25.8,14.2-35.3c9.5-9.5,20.9-14.2,34.4-14.2c10.7,0,19.3,3.5,26,10.4h0.8L684.9,581.8z
			 M662.3,656.7c10.7,0,18.3-4.2,23-12.6v-29c-4.6-8.4-12.3-12.6-23-12.6c-7.9,0-14.3,2.5-19.2,7.5c-4.9,5-7.3,11.6-7.3,19.6
			c0,8,2.4,14.6,7.3,19.6C648,654.1,654.4,656.7,662.3,656.7z"/>
	</g>
</g>
</svg>
