<?xml version="1.0" encoding="utf-8"?>
<!-- Generator: Adobe Illustrator 23.0.1, SVG Export Plug-In . SVG Version: 6.00 Build 0)  -->
<svg version="1.1" id="Capa_1" xmlns="http://www.w3.org/2000/svg" xmlns:xlink="http://www.w3.org/1999/xlink" x="0px" y="0px"
	 viewBox="0 0 1080 1080" style="enable-background:new 0 0 1080 1080;" xml:space="preserve">
<g>
	<path d="M1023.8,563.9c-9.8-11-24.5-29.4-42.9-49l36.8-67.4c8.6-14.7,2.5-34.3-12.3-41.7c-14.7-8.6-34.3-2.5-41.7,12.3l-28.2,52.7
		c-23.3-19.6-49-40.4-79.6-60l35.5-93.1c6.1-15.9-2.5-34.3-18.4-40.4c-15.9-6.1-34.3,2.5-40.4,18.4l-33.1,84.5
		c-27-13.5-56.4-25.7-87-34.3l23.3-111.5c3.7-17.2-7.4-33.1-24.5-36.8c-17.2-3.7-33.1,7.4-36.8,24.5l-23.3,110.3
		c-25.7-4.9-51.5-8.6-79.6-11V191.5c0-17.2-13.5-30.6-30.6-30.6c-17.2,0-30.6,13.5-30.6,30.6v127.4c-28.2,1.2-56.4,4.9-80.9,9.8
		l-22.1-109c-3.7-17.2-19.6-27-35.5-24.5c-17.2,3.7-27,19.6-24.5,36.8l23.3,111.5c-30.6,9.8-60,20.8-87,34.3l-33.1-82.1
		c-6.1-15.9-24.5-23.3-40.4-18.4c-15.9,6.1-23.3,24.5-18.4,40.4l35.5,91.9c-30.6,19.6-57.6,40.4-79.6,58.8l-27-51.5
		c-8.6-14.7-27-19.6-41.7-12.3c-14.7,8.6-19.6,27-12.3,41.7l35.5,64.9C83,532,67.1,550.4,57.3,562.7c-25.7,33.1-25.7,78.4,0,110.3
		c44.1,57.6,208.3,242.6,475.3,246.2c2.5,0,4.9,0,7.4,0s4.9,0,7.4,0c267.1-3.7,431.2-188.7,475.3-246.2
		C1048.3,642.3,1048.3,597,1023.8,563.9z M107.5,636.2c-8.6-9.8-8.6-24.5,0-34.3c25.7-34.3,90.7-107.8,191.1-161.7
		c-36.8,49-58.8,111.5-58.8,178.9c0,66.2,22.1,128.6,58.8,178.9C198.1,744,133.2,670.5,107.5,636.2z M548.5,859.1
		c-2.5,0-4.9,0-7.4,0s-4.9,0-7.4,0C405.2,855.4,301,748.9,301,619s102.9-235.2,231.5-240.1c3.7,0,6.1,0,8.6,0c2.5,0,6.1,0,8.6,0
		c128.6,3.7,231.5,110.3,231.5,240.1S677.1,855.4,548.5,859.1z M974.8,636.2c-25.7,34.3-90.7,107.8-191.1,161.7
		c36.8-50.2,58.8-111.5,58.8-178.9c0-66.2-22.1-128.6-58.8-178.9c100.5,53.9,165.4,127.4,191.1,161.7
		C982.2,612.9,982.2,626.4,974.8,636.2z"/>
	<path d="M541.1,470.8c-19.6,0-39.2,3.7-57.6,11c18.4,9.8,29.4,29.4,29.4,50.2c0,33.1-27,57.6-57.6,57.6c-22.1,0-41.7-11-50.2-29.4
		c-7.4,18.4-11,36.8-11,57.6c0,80.9,66.2,148.2,148.2,148.2c80.9,0,148.2-66.2,148.2-148.2C689.4,536.9,622,470.8,541.1,470.8z"/>
</g>
</svg>
